<svg xmlns="http://www.w3.org/2000/svg" xmlns:xlink="http://www.w3.org/1999/xlink" viewBox="0 0 396.59766 108.99951"><defs><linearGradient id="a" x1="50.15642" y1="138.67383" x2="95.80761" y2="121.05301" gradientTransform="matrix(1, 0, 0, -1, -18.3977, 203.86832)" gradientUnits="userSpaceOnUse"><stop offset="0" stop-color="#fafbfb" stop-opacity="0"/><stop offset="0.11178" stop-color="#d7e7f2" stop-opacity="0.19044"/><stop offset="0.27395" stop-color="#abcce7" stop-opacity="0.4348"/><stop offset="0.43443" stop-color="#86b7de" stop-opacity="0.63788"/><stop offset="0.58986" stop-color="#69a6d6" stop-opacity="0.79577"/><stop offset="0.73882" stop-color="#559ad1" stop-opacity="0.90863"/><stop offset="0.87866" stop-color="#4892ce" stop-opacity="0.9767"/><stop offset="1" stop-color="#4490cd"/></linearGradient><linearGradient id="b" x1="91.77775" y1="165.82585" x2="119.68659" y2="170.74693" gradientTransform="matrix(1, 0, 0, -1, -18.3977, 203.86832)" gradientUnits="userSpaceOnUse"><stop offset="0" stop-color="#fff" stop-opacity="0"/><stop offset="0.08797" stop-color="#fff" stop-opacity="0.04749"/><stop offset="0.24762" stop-color="#fff" stop-opacity="0.1738"/><stop offset="0.46082" stop-color="#fff" stop-opacity="0.37861"/><stop offset="0.71975" stop-color="#fff" stop-opacity="0.66216"/><stop offset="1" stop-color="#fff"/></linearGradient><linearGradient id="c" x1="109.65885" y1="148.71603" x2="85.24461" y2="173.13027" gradientTransform="matrix(1, 0, 0, -1, -18.3977, 203.86832)" gradientUnits="userSpaceOnUse"><stop offset="0.17742" stop-color="#fff" stop-opacity="0"/><stop offset="1" stop-color="#f6921e"/></linearGradient><linearGradient id="d" x1="68.02895" y1="165.31166" x2="76.24225" y2="101.96101" gradientTransform="matrix(1, 0, 0, -1, -18.3977, 203.86832)" gradientUnits="userSpaceOnUse"><stop offset="0" stop-color="#72c3ed" stop-opacity="0"/><stop offset="0.03354" stop-color="#6dbeea" stop-opacity="0.10258"/><stop offset="0.1111" stop-color="#64b3e3" stop-opacity="0.31178"/><stop offset="0.19491" stop-color="#5baadd" stop-opacity="0.49733"/><stop offset="0.28399" stop-color="#54a2d8" stop-opacity="0.65349"/><stop offset="0.37989" stop-color="#4e9bd4" stop-opacity="0.78043"/><stop offset="0.48525" stop-color="#4a96d1" stop-opacity="0.87838"/><stop offset="0.60494" stop-color="#4693cf" stop-opacity="0.94748"/><stop offset="0.75114" stop-color="#4591cd" stop-opacity="0.98788"/><stop offset="1" stop-color="#4490cd"/></linearGradient></defs><path d="M106,59.34607a36.77253,36.77253,0,0,1-1.37934,3.60817,16.65806,16.65806,0,0,1-8.32225,7.62052,16.16883,16.16883,0,0,1-21.208-8.06444,20.25713,20.25713,0,0,1-1.06254-3.74725c-.09059-.49449-.16018-.98549-.21448-1.47859-.0192-.30982-.03129-.61881-.03341-.92725-.01167.03715-.02593.074-.03871.11117-.37927-5.592,2.85175-12.27083,6.3953-16.392-1.8293.39612-14.67,1.16822-14.67,1.16822S52.45122,57.47612,58.18562,77.593c1.61828,5.68,5.37776,13.06468,8.82543,15.48247q.4448.016.89176.02059H68.015c.13991.00355.28019.00355.42084.00355h.12432c.15089-.00355.30077-.00355.452-.0078h.07355c.3544-.00711.71166-.02058,1.0661-.03835.04015,0,.07882-.00355.119-.00567.13848-.00785.27665-.01352.4148-.02418.0444-.00282.08846-.00568.13355-.0078.14522-.00992.29085-.022.43713-.03268.02949-.00281.06-.00281.08953-.00567.35476-.02986.70884-.06248,1.06434-.10087.043-.00568.08524-.01066.1282-.01634.13455-.01491.26884-.02985.40308-.04758.04827-.00567.09663-.01209.14453-.01776.13959-.01772.27987-.03692.41942-.05611l.10835-.01348c.17969-.027.35832-.05187.53732-.08168h.00424c.17222-.0263.34448-.05611.51567-.08454.04684-.0071.09229-.01633.13881-.02556.13-.02058.26067-.04407.3896-.0682.05293-.01135.10476-.01916.15662-.03051q.20033-.03842.39916-.07743c.04334-.00923.0856-.01776.12856-.02557.17508-.03553.3527-.07249.52846-.11153l.01246-.00286c.16829-.03692.337-.07669.50534-.115.0497-.01066.10014-.02275.14983-.03623.12538-.02911.25-.06109.3747-.09021.05649-.0149.11223-.02842.16691-.04333.12856-.03262.25532-.0646.38245-.098.04725-.01278.09487-.02626.14135-.03835.17475-.04762.34733-.09377.52135-.14347l.01851-.005c.16511-.04619.331-.09516.49716-.1449.05113-.01559.10369-.03336.15556-.04831.12183-.03692.24254-.07527.36432-.11218.05828-.01777.11684-.0377.17475-.05469.12146-.03912.24328-.0796.36579-.11937.05187-.01634.103-.03406.15413-.0504.17083-.05967.34129-.11721.5135-.17687l.01491-.00568c.16626-.05824.33105-.11864.4951-.17757.05325-.01989.10586-.04047.16086-.05966.118-.04476.23585-.09091.35551-.13567.0586-.022.1179-.04546.1772-.06821.11933-.04683.23687-.093.3555-.1406.05362-.02058.10619-.04333.15874-.064.1701-.06816.33843-.13636.50677-.20738q.341-.14489.67548-.294c.07283-.03124.14315-.06534.21592-.098.15131-.0682.30257-.13853.45421-.20812.082-.0384.16552-.07669.24789-.11717.13922-.06677.2795-.13285.41767-.20174.08379-.04121.1676-.08311.25145-.12289q.20932-.10549.41618-.21236c.07744-.04047.15662-.08025.23475-.12.15555-.08167.31005-.16478.46454-.24789.05787-.03128.11647-.06253.17328-.09377q.31911-.17582.63109-.353c.03267-.01989.06534-.03913.09876-.05611.17576-.10157.35014-.20531.52236-.30757.06747-.04194.135-.08172.20175-.12288.13885-.08316.276-.16691.41263-.25431.07425-.044.14845-.0916.22265-.13779.12967-.08311.25966-.16617.38855-.25145.07388-.04688.14633-.09441.2184-.142.13424-.0881.26852-.17827.40133-.26848.06391-.04333.12856-.08592.19141-.12926.16336-.113.326-.22519.48619-.34166.03267-.01989.06285-.04264.0934-.06322.19529-.14134.38812-.28194.58028-.42334.038-.02837.07494-.05749.113-.08592.15126-.11435.30041-.2287.44955-.34235.05934-.04545.1179-.09091.17724-.13848.12787-.09945.25537-.19889.3814-.30115.06252-.05044.124-.09944.18643-.15131.12394-.10087.24793-.20387.37045-.3047.05856-.049.1179-.09944.17647-.14776.13211-.11292.26353-.22588.39422-.34018.04509-.0384.09091-.07886.13779-.11864.35407-.31181.70353-.63141,1.04552-.95461.0348-.03406.06995-.06677.10475-.10083.13355-.12787.26709-.25643.39846-.3843.04832-.04895.09733-.09658.14527-.14559.11827-.11716.23442-.2358.352-.353.05044-.05182.10014-.10369.15057-.15556.11717-.12071.23225-.24074.34661-.36293.04581-.04832.09127-.09727.1364-.14346q.196-.212.38744-.4233c.02662-.02916.05431-.05754.081-.08883.31356-.35015.62181-.70317.92226-1.06541.03336-.039.0646-.07743.09626-.11573.11435-.14065.2294-.28057.34235-.42195.04084-.0504.08094-.10226.12141-.15408q.15825-.19609.31185-.39634c.0401-.05187.08168-.10512.12252-.157.10544-.13992.20918-.27771.31218-.41693.03442-.04614.06921-.09376.10332-.13848.12538-.17189.24932-.34235.37184-.51494a.47039.47039,0,0,1,.02949-.0412c.13816-.19607.27309-.3921.40838-.58951a.1281.1281,0,0,1,.01773-.02631q.18228-.26953.35979-.54336c.03055-.04619.06179-.09372.092-.14278.09372-.14346.1861-.29122.27844-.43607.03548-.05755.07027-.1144.10687-.17195.08666-.13986.173-.28264.25749-.42329l.06146-.10087-.00074.00143A36.55432,36.55432,0,0,0,106,59.34607Z" transform="translate(-9 -2.99984)" style="fill:#008c6b"/><path d="M106,59.34607a36.77253,36.77253,0,0,1-1.37934,3.60817,16.65806,16.65806,0,0,1-8.32225,7.62052,16.16883,16.16883,0,0,1-21.208-8.06444,20.25713,20.25713,0,0,1-1.06254-3.74725c-.09059-.49449-.16018-.98549-.21448-1.47859-.0192-.30982-.03129-.61881-.03341-.92725-.01167.03715-.02593.074-.03871.11117-.37927-5.592,2.85175-12.27083,6.3953-16.392-1.8293.39612-14.67,1.16822-14.67,1.16822S52.45122,57.47612,58.18562,77.593c1.61828,5.68,5.37776,13.06468,8.82543,15.48247q.4448.016.89176.02059H68.015c.13991.00355.28019.00355.42084.00355h.12432c.15089-.00355.30077-.00355.452-.0078h.07355c.3544-.00711.71166-.02058,1.0661-.03835.04015,0,.07882-.00355.119-.00567.13848-.00785.27665-.01352.4148-.02418.0444-.00282.08846-.00568.13355-.0078.14522-.00992.29085-.022.43713-.03268.02949-.00281.06-.00281.08953-.00567.35476-.02986.70884-.06248,1.06434-.10087.043-.00568.08524-.01066.1282-.01634.13455-.01491.26884-.02985.40308-.04758.04827-.00567.09663-.01209.14453-.01776.13959-.01772.27987-.03692.41942-.05611l.10835-.01348c.17969-.027.35832-.05187.53732-.08168h.00424c.17222-.0263.34448-.05611.51567-.08454.04684-.0071.09229-.01633.13881-.02556.13-.02058.26067-.04407.3896-.0682.05293-.01135.10476-.01916.15662-.03051q.20033-.03842.39916-.07743c.04334-.00923.0856-.01776.12856-.02557.17508-.03553.3527-.07249.52846-.11153l.01246-.00286c.16829-.03692.337-.07669.50534-.115.0497-.01066.10014-.02275.14983-.03623.12538-.02911.25-.06109.3747-.09021.05649-.0149.11223-.02842.16691-.04333.12856-.03262.25532-.0646.38245-.098.04725-.01278.09487-.02626.14135-.03835.17475-.04762.34733-.09377.52135-.14347l.01851-.005c.16511-.04619.331-.09516.49716-.1449.05113-.01559.10369-.03336.15556-.04831.12183-.03692.24254-.07527.36432-.11218.05828-.01777.11684-.0377.17475-.05469.12146-.03912.24328-.0796.36579-.11937.05187-.01634.103-.03406.15413-.0504.17083-.05967.34129-.11721.5135-.17687l.01491-.00568c.16626-.05824.33105-.11864.4951-.17757.05325-.01989.10586-.04047.16086-.05966.118-.04476.23585-.09091.35551-.13567.0586-.022.1179-.04546.1772-.06821.11933-.04683.23687-.093.3555-.1406.05362-.02058.10619-.04333.15874-.064.1701-.06816.33843-.13636.50677-.20738q.341-.14489.67548-.294c.07283-.03124.14315-.06534.21592-.098.15131-.0682.30257-.13853.45421-.20812.082-.0384.16552-.07669.24789-.11717.13922-.06677.2795-.13285.41767-.20174.08379-.04121.1676-.08311.25145-.12289q.20932-.10549.41618-.21236c.07744-.04047.15662-.08025.23475-.12.15555-.08167.31005-.16478.46454-.24789.05787-.03128.11647-.06253.17328-.09377q.31911-.17582.63109-.353c.03267-.01989.06534-.03913.09876-.05611.17576-.10157.35014-.20531.52236-.30757.06747-.04194.135-.08172.20175-.12288.13885-.08316.276-.16691.41263-.25431.07425-.044.14845-.0916.22265-.13779.12967-.08311.25966-.16617.38855-.25145.07388-.04688.14633-.09441.2184-.142.13424-.0881.26852-.17827.40133-.26848.06391-.04333.12856-.08592.19141-.12926.16336-.113.326-.22519.48619-.34166.03267-.01989.06285-.04264.0934-.06322.19529-.14134.38812-.28194.58028-.42334.038-.02837.07494-.05749.113-.08592.15126-.11435.30041-.2287.44955-.34235.05934-.04545.1179-.09091.17724-.13848.12787-.09945.25537-.19889.3814-.30115.06252-.05044.124-.09944.18643-.15131.12394-.10087.24793-.20387.37045-.3047.05856-.049.1179-.09944.17647-.14776.13211-.11292.26353-.22588.39422-.34018.04509-.0384.09091-.07886.13779-.11864.35407-.31181.70353-.63141,1.04552-.95461.0348-.03406.06995-.06677.10475-.10083.13355-.12787.26709-.25643.39846-.3843.04832-.04895.09733-.09658.14527-.14559.11827-.11716.23442-.2358.352-.353.05044-.05182.10014-.10369.15057-.15556.11717-.12071.23225-.24074.34661-.36293.04581-.04832.09127-.09727.1364-.14346q.196-.212.38744-.4233c.02662-.02916.05431-.05754.081-.08883.31356-.35015.62181-.70317.92226-1.06541.03336-.039.0646-.07743.09626-.11573.11435-.14065.2294-.28057.34235-.42195.04084-.0504.08094-.10226.12141-.15408q.15825-.19609.31185-.39634c.0401-.05187.08168-.10512.12252-.157.10544-.13992.20918-.27771.31218-.41693.03442-.04614.06921-.09376.10332-.13848.12538-.17189.24932-.34235.37184-.51494a.47039.47039,0,0,1,.02949-.0412c.13816-.19607.27309-.3921.40838-.58951a.1281.1281,0,0,1,.01773-.02631q.18228-.26953.35979-.54336c.03055-.04619.06179-.09372.092-.14278.09372-.14346.1861-.29122.27844-.43607.03548-.05755.07027-.1144.10687-.17195.08666-.13986.173-.28264.25749-.42329l.06146-.10087-.00074.00143A36.55432,36.55432,0,0,0,106,59.34607Z" transform="translate(-9 -2.99984)" style="fill:#101d10;opacity:0.20000000298023224;isolation:isolate"/><path d="M104.62065,62.95423a16.65806,16.65806,0,0,1-8.32225,7.62052,16.16883,16.16883,0,0,1-21.208-8.06444,20.25691,20.25691,0,0,1-1.06254-3.74725c-.09059-.49449-.16018-.98548-.21448-1.47859-.0192-.30982-.03129-.61881-.03341-.92725-.01167.03715-.02593.074-.03871.11117C73.38509,51.231,76.19738,45.041,79.46781,40.88805a19.81679,19.81679,0,1,0,22.05926,32.7856A36.47518,36.47518,0,0,0,106,59.34606,36.77163,36.77163,0,0,1,104.62065,62.95423Z" transform="translate(-9 -2.99984)" style="fill:#25a249;opacity:0.4000000059604645;isolation:isolate"/><path d="M100.6897,78.32309a2.30326,2.30326,0,0,1-.42726.40982A24.76863,24.76863,0,0,1,62.30162,61.12244a25.15678,25.15678,0,0,1-.20669-3.21592A24.66728,24.66728,0,0,1,68.78,40.98482c-3.18768.24752-6.11576.55951-7.21845.79245a30.17167,30.17167,0,0,0-13.67315,7.61364C40.84608,56.00975,35.94944,65.8003,33.64212,75.92662c-1.771,7.77538-.16013,19.112,2.77113,23.93549.353.17115.70921.33594,1.06794.49717.04435.01919.08874.03908.13387.06105q.254.10977.50857.22094c.04864.02132.0994.04329.14984.06392.18255.07882.36579.15412.54834.23013a.94837.94837,0,0,0,.08985.03691c.43326.17974.869.35016,1.30831.51494.04791.0192.097.037.14522.05612.17088.06252.3413.12575.51213.18753.05542.0192.11116.03978.16691.05967.18043.06534.36118.12713.54373.18966.03729.0149.07494.02694.11292.039q.66269.2269,1.33637.43469c.05436.01495.10941.03194.16335.049.169.05187.33848.1023.50894.1527l.18573.05329c.1772.05044.35514.10088.53344.14984.04684.01352.09336.02557.14024.0384q.343.0937.68789.1825l.00605.00143c.22163.05824.44355.11153.66625.16478.06036.01491.12039.02843.18038.04334.16834.0419.33668.08024.50608.1172.0682.01491.13673.03125.20419.04615.17439.03835.34771.07674.52135.113.05648.00992.11154.02339.168.03548.23082.04758.46307.0952.69564.13922l.01638.00356c.22265.0412.44535.081.66907.12145.06571.01135.13354.022.19926.03406.16547.02774.33168.05611.49859.08316.07564.01209.14988.02483.22478.03549.17014.0263.33986.05329.51069.07743.06322.01.12787.01915.19072.02769.23368.03267.46842.064.7028.09519l.0245.00282c.22339.02842.4489.05329.67372.07886.07029.00923.14167.01634.21306.02414.16621.01707.33169.03553.49791.05044.08024.00849.15874.01707.239.02344.16691.01633.33451.02985.50211.04333.07069.00567.14208.01135.21172.01776.23649.01915.47336.03479.70921.05183h.02376c.2287.0149.457.02842.68715.03839.07356.00282.14845.00568.22339.00992.16622.00642.33244.01348.49792.01989.08311.00143.1669.00568.25075.00568.16617.0071.33414.01066.5004.01348l.22409.00424c.24042.00291.47834.00642.71913.00642.32246,0,.64382-.00425.9649-.01066.10332-.00139.20632-.00425.30968-.0085.218-.005.43714-.01066.65448-.01989.12008-.00424.23973-.01066.36013-.01633.20244-.00854.40418-.0192.60694-.03272.12178-.00564.24324-.01348.36575-.022.20494-.01209.40807-.02843.6112-.04407.11614-.00923.23013-.01846.34452-.02695.23013-.01924.45846-.04194.68716-.06538.087-.00781.17226-.01629.25749-.02414q.473-.05115.94215-.108c.05007-.0078.09806-.01491.14882-.01915.26242-.03623.52527-.06959.78664-.11011q.15337-.02031.30714-.04476.31489-.04686.62615-.09727c.114-.01994.22689-.03909.33986-.05824.19959-.03479.39917-.07176.598-.10655.1126-.02132.22408-.0419.33631-.06321.20775-.03978.41476-.08242.62112-.12428.09912-.02062.19783-.04051.29764-.0604.25426-.05542.5082-.1108.761-.16834.04758-.01.09728-.022.14633-.03268.30649-.071.61046-.14489.91409-.22232.0611-.01629.12114-.03125.18113-.04758.24115-.06105.47945-.12431.71774-.18966.09552-.02556.18819-.05394.28412-.07886.20388-.0575.40945-.11573.61439-.17683.10083-.02911.20239-.05961.30295-.09017.201-.05971.40127-.12362.60159-.18615.09622-.02907.1928-.05892.28943-.09159.21591-.06959.43183-.14135.64774-.2138.075-.027.152-.05186.22695-.07743q.88266-.30255,1.75012-.63921c.05929-.02275.11859-.04619.17932-.06963.22588-.08947.4507-.17826.67441-.27059.08385-.03553.168-.06963.25182-.10512.20239-.08454.40271-.1676.60405-.25357q.13-.0607.26247-.11578c.20133-.08878.40235-.1783.60266-.27064.08025-.03549.15874-.071.23756-.10794.22944-.10512.45638-.21379.68328-.32247.04762-.02344.09588-.04545.14171-.06746q.83907-.406,1.65778-.84312c.05934-.03125.11827-.06392.17688-.09516.20986-.11292.419-.2287.6261-.34448.07707-.0412.15057-.08454.2269-.12718.1939-.10862.386-.22011.5782-.331q.11345-.06714.2287-.13423c.19709-.11717.39385-.23438.58988-.35445.06428-.039.12926-.07882.19428-.11716.23829-.147.47585-.2969.71239-.44678.01845-.01352.03729-.02414.05574-.03549q.39953-.2568.79338-.52136c.01172-.00567.02275-.0149.03479-.02206.238-.16193.47553-.32316.71133-.48651.06179-.04333.12183-.08667.18255-.12926.18786-.13211.375-.26566.55971-.3992.07351-.05183.14415-.10581.21518-.15911.17793-.12713.353-.25925.5285-.392.04222-.03055.08375-.06036.126-.0916h-.00212A48.99345,48.99345,0,0,0,100.6897,78.32309Z" transform="translate(-9 -2.99984)" style="fill:#7dcaa9"/><path d="M100.6897,78.32309a2.30962,2.30962,0,0,1-.42726.40982A24.76863,24.76863,0,0,1,62.30162,61.12244a25.15678,25.15678,0,0,1-.20669-3.21592A24.66728,24.66728,0,0,1,68.78,40.98482c-3.18768.24752-6.11576.55951-7.21845.79245a30.17167,30.17167,0,0,0-13.67315,7.61364C40.84608,56.00975,35.94944,65.8003,33.64212,75.92662c-1.771,7.77538-.16013,19.112,2.77113,23.93549.353.17115.70921.33594,1.06794.49717.04435.01919.08874.03908.13387.06105q.254.10977.50857.22094c.04864.02132.0994.04329.14984.06392.18255.07882.36579.15412.54834.23013a.94837.94837,0,0,0,.08985.03691c.43326.17974.869.35016,1.30831.51494.04791.0192.097.037.14522.05612.17088.06252.3413.12575.51213.18753.05542.0192.11116.03978.16691.05967.18043.06534.36118.12713.54373.18966.03729.0149.07494.02694.11292.039q.66269.2269,1.33637.43469c.05436.01495.10941.03194.16335.049.169.05187.33848.1023.50894.1527l.18573.05329c.1772.05044.35514.10088.53344.14984.04684.01352.09336.02557.14024.0384q.343.0937.68789.1825l.00605.00143c.22163.05824.44355.11153.66625.16478.06036.01491.12039.02843.18038.04334.16834.0419.33668.08024.50608.1172.0682.01491.13673.03125.20419.04615.17439.03835.34771.07674.52135.113.05648.00992.11154.02339.168.03548.23082.04758.46307.0952.69564.13922l.01638.00356c.22265.0412.44535.081.66907.12145.06571.01135.13354.022.19926.03406.16547.02774.33168.05611.49859.08316.07564.01209.14988.02483.22478.03549.17014.0263.33986.05329.51069.07743.06322.01.12787.01915.19072.02769.23368.03267.46842.064.7028.09519l.0245.00282c.22339.02842.4489.05329.67372.07886.07029.00923.14167.01634.21306.02414.16621.01707.33169.03553.49791.05044.08024.00849.15874.01707.239.02344.16691.01633.33451.02985.50211.04333.07069.00567.14208.01135.21172.01776.23649.01915.47336.03479.70921.05183h.02376c.2287.0149.457.02842.68715.03839.07356.00282.14845.00568.22339.00992.16622.00642.33244.01348.49792.01989.08311.00143.1669.00568.25075.00568.16617.0071.33414.01066.5004.01348l.22409.00424c.24042.00291.47834.00642.71913.00642.32246,0,.64382-.00425.9649-.01066.10332-.00139.20632-.00425.30968-.0085.218-.005.43714-.01066.65448-.01989.12008-.00424.23973-.01066.36013-.01633.20244-.00854.40418-.0192.60694-.03272.12178-.00564.24324-.01348.36575-.022.20494-.01209.40807-.02843.6112-.04407.11614-.00923.23013-.01846.34452-.02695.23013-.01924.45846-.04194.68716-.06538.087-.00781.17226-.01629.25749-.02414q.473-.05115.94215-.108c.05007-.0078.09806-.01491.14882-.01915.26242-.03623.52527-.06959.78664-.11011q.15337-.02031.30714-.04476.31489-.04686.62615-.09727c.114-.01994.22689-.03909.33986-.05824.19959-.03479.39917-.07176.598-.10655.1126-.02132.22408-.0419.33631-.06321.20775-.03978.41476-.08242.62112-.12428.09912-.02062.19783-.04051.29764-.0604.25426-.05542.5082-.1108.761-.16834.04758-.01.09728-.022.14633-.03268.30649-.071.61046-.14489.91409-.22232.0611-.01629.12114-.03125.18113-.04758.24115-.06105.47945-.12431.71774-.18966.09552-.02556.18819-.05394.28412-.07886.20388-.0575.40945-.11573.61439-.17683.10083-.02911.20239-.05961.30295-.09017.201-.05971.40127-.12362.60159-.18615.09622-.02907.1928-.05892.28943-.09159.21591-.06959.43183-.14135.64774-.2138.075-.027.152-.05186.22695-.07743q.88266-.30255,1.75012-.63921c.05929-.02275.11859-.04619.17932-.06963.22588-.08947.4507-.17826.67441-.27059.08385-.03553.168-.06963.25182-.10512.20239-.08454.40271-.1676.60405-.25357q.13-.0607.26247-.11578c.20133-.08878.40235-.1783.60266-.27064.08025-.03549.15874-.071.23756-.10794.22944-.10512.45638-.21379.68328-.32247.04762-.02344.09588-.04545.14171-.06746q.83907-.406,1.65778-.84312c.05934-.03125.11827-.06392.17688-.09516.20986-.11292.419-.2287.6261-.34448.07707-.0412.15057-.08454.2269-.12718.1939-.10862.386-.22011.5782-.331q.11345-.06714.2287-.13423c.19709-.11717.39385-.23438.58988-.35445.06428-.039.12926-.07882.19428-.11716.23829-.147.47585-.2969.71239-.44678.01845-.01352.03729-.02414.05574-.03549q.39953-.2568.79338-.52136c.01172-.00567.02275-.0149.03479-.02206.238-.16193.47553-.32316.71133-.48651.06179-.04333.12183-.08667.18255-.12926.18786-.13211.375-.26566.55971-.3992.07351-.05183.14415-.10581.21518-.15911.17793-.12713.353-.25925.5285-.392.04222-.03055.08375-.06036.126-.0916h-.00212A48.99345,48.99345,0,0,0,100.6897,78.32309Z" transform="translate(-9 -2.99984)" style="fill:#18743a;opacity:0.30000001192092896;isolation:isolate"/><path d="M100.26244,78.73291A24.76863,24.76863,0,0,1,62.30162,61.12244a25.15678,25.15678,0,0,1-.20669-3.21592A24.66728,24.66728,0,0,1,68.78,40.98482c-.80118.06354-1.58745.12888-2.33077.19566A31.59105,31.59105,0,0,0,80.491,98.81018c.2095-.11292.41868-.2287.62574-.34448.07707-.0412.15057-.08453.2269-.12717.1939-.10863.386-.22012.5782-.331q.11345-.06713.2287-.13423c.19709-.11717.39385-.23438.58988-.35444.06428-.039.12926-.07882.19428-.11717.23829-.147.47585-.2969.71239-.44678.01845-.01352.03729-.02414.05574-.03549q.39953-.2568.79338-.52135c.01172-.00568.02275-.01491.03479-.02206.238-.16193.47553-.32316.71133-.48652.06179-.04333.12183-.08666.18255-.12926.18786-.13211.375-.26566.55971-.3992.07351-.05182.14415-.10581.21518-.15911.17793-.12713.353-.25925.5285-.392.04222-.03054.08375-.06036.126-.0916h-.00212a48.9932,48.9932,0,0,0,13.83757-16.39523A2.40031,2.40031,0,0,1,100.26244,78.73291Z" transform="translate(-9 -2.99984)" style="fill:#5dc1a3;opacity:0.6000000238418579;isolation:isolate"/><path d="M38.3047,90.54049A66.17613,66.17613,0,0,1,58.77546,42.60088a31.07837,31.07837,0,0,0-10.88707,6.79C40.84608,56.00975,35.94944,65.8003,33.64212,75.92662c-1.771,7.77538-.16013,19.112,2.77113,23.93549.353.17115.70921.33594,1.06794.49717.04435.01919.08874.03908.13387.06105q.254.10977.50857.22094c.04864.02132.0994.04329.14984.06392.18255.07882.36579.15412.54834.23013a.94837.94837,0,0,0,.08985.03691c.07424.03129.14808.0611.2227.09091A66.81654,66.81654,0,0,1,38.3047,90.54049Z" transform="translate(-9 -2.99984)" style="opacity:0.5;isolation:isolate;fill:url(#a)"/><path d="M93.10112,41.26677c4.381,1.17855,6.739,3.28592,6.99086,5.05468a11.30106,11.30106,0,0,0-.50534-13.9831c-5.79121-6.93512-23.75119-6.63716-23.75119-6.63716s-5.16225,1.59244-11.11964,7.25149C57.4831,39.82421,51.5761,46.65827,51.5761,46.65827,58.19979,41.08108,87.61571,39.79016,93.10112,41.26677Z" transform="translate(-9 -2.99984)" style="fill:#fdbb11"/><path d="M97.98142,35.19521a12.768,12.768,0,0,1,2.92521,9.90191,11.405,11.405,0,0,0-1.32-12.75878c-5.79121-6.93511-23.75119-6.63715-23.75119-6.63715a22.57791,22.57791,0,0,0-4.27188,2.03954C74.50937,27.745,91.9981,28.06393,97.98142,35.19521Z" transform="translate(-9 -2.99984)" style="opacity:0.5;isolation:isolate;fill:url(#b)"/><path d="M93.10112,41.26677c4.381,1.17855,6.739,3.28592,6.99086,5.05468a11.30106,11.30106,0,0,0-.50534-13.9831c-5.79121-6.93512-23.75119-6.63716-23.75119-6.63716s-5.16225,1.59244-11.11964,7.25149C57.4831,39.82421,51.5761,46.65827,51.5761,46.65827,58.19979,41.08108,87.61571,39.79016,93.10112,41.26677Z" transform="translate(-9 -2.99984)" style="opacity:0.30000001192092896;isolation:isolate;fill:url(#c)"/><path d="M94.38461,39.63871c-7.60063-2.25-27.25206-1.59992-38.50354,1.75131-1.52349,1.6725-4.305,5.26825-4.305,5.26825,6.62368-5.57719,36.0396-6.86811,41.525-5.3915,4.381,1.17855,6.739,3.28592,6.99086,5.05468C100.50959,45.796,100.11256,41.33335,94.38461,39.63871Z" transform="translate(-9 -2.99984)" style="fill:#ee4036;opacity:0.10000000149011612;isolation:isolate"/><path d="M56.76466,42.62308c.1527-.14564.3065-.28947.461-.43488l.04508-.0401q.21631-.20247.43257-.40082c.01813-.01472.03548-.0323.05187-.04707.14914-.13673.299-.27179.44885-.407.01066-.00868.02026-.01915.02986-.02649q.97966-.87707,1.99159-1.71578c.01279-.01177.02593-.02225.03871-.03272.15057-.12445.30433-.2491.45564-.37378.02451-.01772.04827-.03871.07176-.05786.14559-.11721.28975-.23437.43432-.349.02589-.02058.05219-.0401.07775-.06072l.45066-.35615c.01845-.01366.037-.02843.05542-.04158q.77511-.60573,1.56863-1.184c.0121-.01048.02381-.01841.03516-.02714.15874-.11577.31748-.22994.47728-.34415.03373-.02395.0664-.04877.10087-.07281.13922-.09921.27881-.19723.41762-.29667.04158-.02824.08385-.05787.12537-.08791.13424-.09321.26991-.18647.40521-.28144.04158-.02843.08384-.05667.12537-.08629.14172-.09677.28482-.19427.42722-.28924.03447-.024.06714-.04619.10087-.06839.17545-.119.35121-.23437.52772-.35034l.00111-.00124q.5417-.35427,1.08917-.70072c.0437-.0282.08735-.05482.13069-.08182.135-.08454.26921-.16908.40414-.25232.05718-.034.11222-.06839.16939-.10374.124-.07577.24859-.15288.37328-.22689.06142-.03747.12-.07282.18181-.10974.12214-.07282.24609-.14739.36971-.21965l.18-.10711c.13073-.07581.2621-.15306.39348-.22832.05119-.02843.103-.05967.15561-.08934.168-.09626.33557-.193.50465-.288.0149-.00867.02981-.01615.04508-.02519q.27859-.15559.55965-.31024c.04444-.0252.08989-.04882.13535-.07406.13918-.07582.27807-.14984.41836-.2257.06534-.03585.13138-.06977.19745-.10544.12-.06359.24116-.12713.36044-.19.07282-.0401.1449-.07526.21772-.11412.11467-.06091.23119-.12025.34627-.17775.07489-.03876.14914-.07743.22335-.11458.11646-.05925.23548-.119.35337-.17807.07033-.03586.14241-.071.21449-.10688.1275-.06395.25638-.12593.38425-.18859.06142-.02963.12326-.06055.18541-.09022q.28282-.138.56925-.27309A50.07988,50.07988,0,0,0,15.488,46.145c-2.5758,3.31855-9.02048,14.1202-2.21748,30.32222a20.71062,20.71062,0,0,1,2.89614-8.65612A21.28638,21.28638,0,0,1,19.664,63.62759a30.53022,30.53022,0,0,0,17.06354,36.42058l-.0131-.01772-.006-.01209.00069.00567a66.67259,66.67259,0,0,1,20.05558-57.401Z" transform="translate(-9 -2.99984)" style="fill:#98d9f3"/><path d="M56.76466,42.62308c.1527-.14564.3065-.28947.461-.43488l.04508-.0401q.21631-.20247.43257-.40082c.01813-.01472.03548-.0323.05187-.04707.14914-.13673.299-.27179.44885-.407.01066-.00868.02026-.01915.02986-.02649q.97966-.87707,1.99159-1.71578c.01279-.01177.02593-.02225.03871-.03272.15057-.12445.30433-.2491.45564-.37378.02451-.01772.04827-.03871.07176-.05786.14559-.11721.28975-.23437.43432-.349.02589-.02058.05219-.0401.07775-.06072l.45066-.35615c.01845-.01366.037-.02843.05542-.04158q.77511-.60573,1.56863-1.184c.0121-.01048.02381-.01841.03516-.02714.15874-.11577.31748-.22994.47728-.34415.03373-.02395.0664-.04877.10087-.07281.13922-.09921.27881-.19723.41762-.29667.04158-.02824.08385-.05787.12537-.08791.13424-.09321.26991-.18647.40521-.28144.04158-.02843.08384-.05667.12537-.08629.14172-.09677.28482-.19427.42722-.28924.03447-.024.06714-.04619.10087-.06839.17545-.119.35121-.23437.52772-.35034l.00111-.00124q.5417-.35427,1.08917-.70072c.0437-.0282.08735-.05482.13069-.08182.135-.08454.26921-.16908.40414-.25232.05718-.034.11222-.06839.16939-.10374.124-.07577.24859-.15288.37328-.22689.06142-.03747.12-.07282.18181-.10974.12214-.07282.24609-.14739.36971-.21965l.18-.10711c.13073-.07581.2621-.15306.39348-.22832.05119-.02843.103-.05967.15561-.08934.168-.09626.33557-.193.50465-.288.0149-.00867.02981-.01615.04508-.02519q.27859-.15559.55965-.31024c.04444-.0252.08989-.04882.13535-.07406.13918-.07582.27807-.14984.41836-.2257.06534-.03585.13138-.06977.19745-.10544.12-.06359.24116-.12713.36044-.19.07282-.0401.1449-.07526.21772-.11412.11467-.06091.23119-.12025.34627-.17775.07489-.03876.14914-.07743.22335-.11458.11646-.05925.23548-.119.35337-.17807.07033-.03586.14241-.071.21449-.10688.1275-.06395.25638-.12593.38425-.18859.06142-.02963.12326-.06055.18541-.09022q.28282-.138.56925-.27309A50.07988,50.07988,0,0,0,15.488,46.145c-2.5758,3.31855-9.02048,14.1202-2.21748,30.32222a20.71062,20.71062,0,0,1,2.89614-8.65612A21.28638,21.28638,0,0,1,19.664,63.62759a30.53022,30.53022,0,0,0,17.06354,36.42058l-.0131-.01772-.006-.01209.00069.00567a66.67259,66.67259,0,0,1,20.05558-57.401Z" transform="translate(-9 -2.99984)" style="fill:#6abd45;opacity:0.30000001192092896;isolation:isolate"/><path d="M28.98064,74.28522a46.77912,46.77912,0,0,0,7.65959,25.7239c.02876.01348.05856.027.08731.039l-.0131-.01772-.00605-.01209.0007.00567a66.67256,66.67256,0,0,1,20.05558-57.401c.15269-.14563.30649-.28946.461-.43487l.04508-.0401q.21631-.20246.43257-.40082c.01814-.01472.03549-.0323.05188-.04707.14913-.13673.299-.27179.44885-.407.01066-.00868.02026-.01915.02985-.02649q.97968-.87707,1.9916-1.71578c.01278-.01177.02593-.02225.03871-.03272.15057-.12446.30433-.2491.45564-.37378.0245-.01772.04827-.03872.07176-.05786.14559-.11721.28975-.23438.43432-.349.02589-.02058.05219-.0401.07775-.06072l.45066-.35615c.01845-.01366.037-.02843.05542-.04158q.77509-.60573,1.56863-1.184c.01209-.01048.02381-.01842.03516-.02714.15874-.11577.31748-.22994.47728-.34415.03373-.02395.0664-.04878.10087-.07282.13922-.09921.27881-.19722.41762-.29667.04157-.02824.08384-.05786.12537-.0879.13424-.09322.26991-.18648.4052-.28145.04158-.02842.08385-.05666.12538-.08629.14171-.09676.28481-.19427.42721-.28924.03448-.024.06714-.04619.10088-.06838.17544-.119.35121-.23438.52772-.35034l.0011-.00125q.54171-.35425,1.08918-.70072c.0437-.02819.08735-.05482.13068-.08181.135-.08454.26922-.16908.40414-.25233.05719-.034.11223-.06838.1694-.10373.12395-.07577.24859-.15288.37327-.2269.06142-.03747.12-.07282.18181-.10973.12215-.07282.2461-.14739.36972-.21966l.18-.1071c.13072-.07582.2621-.15307.39348-.22833.05118-.02842.103-.05966.15561-.08934.168-.09626.33557-.193.50464-.288.01491-.00867.02981-.01615.04509-.0252q.2786-.15559.55965-.31023c.04444-.0252.08989-.04882.13535-.07407.13917-.07581.27807-.14983.41835-.22569.06534-.03586.13138-.06978.19746-.10545.12-.06359.24116-.12713.36044-.19.07282-.0401.1449-.07527.21772-.11412.11467-.06091.23119-.12025.34627-.17775.07489-.03876.14914-.07743.22334-.11458.11647-.05925.23548-.119.35338-.17808.07033-.03585.1424-.071.21448-.10687.12751-.064.25639-.12593.38426-.1886.06142-.02962.12326-.06054.18541-.09021q.28282-.138.56925-.27309a49.70967,49.70967,0,0,0-7.43547-2.43251A47.01194,47.01194,0,0,0,28.98064,74.28522Z" transform="translate(-9 -2.99984)" style="opacity:0.20000000298023224;isolation:isolate;fill:url(#d)"/><path d="M55.85126,34.3747A42.7238,42.7238,0,0,0,13.14017,76.14751c.04435.10512.08593.211.13032.31966a20.71062,20.71062,0,0,1,2.89614-8.65612A21.28638,21.28638,0,0,1,19.664,63.62759a30.53022,30.53022,0,0,0,17.06354,36.42058l-.0131-.01772-.006-.01209.00069.00567a66.67259,66.67259,0,0,1,20.05558-57.401c.1527-.14563.3065-.28947.461-.43487l.04509-.0401q.2163-.20247.43257-.40082c.01813-.01472.03548-.0323.05187-.04707.14914-.13673.299-.27179.44885-.407.01066-.00867.02026-.01914.02986-.02648q.97966-.87707,1.99159-1.71579c.01278-.01176.02593-.02224.03871-.03271.15057-.12446.30433-.2491.45564-.37378.0245-.01772.04827-.03872.07176-.05787.14559-.11721.28975-.23437.43432-.349.02589-.02058.05219-.0401.07775-.06073l.45066-.35615c.01845-.01366.037-.02842.05542-.04158q.77509-.60573,1.56863-1.184c.01209-.01047.02381-.01841.03516-.02713.15874-.11578.31748-.22994.47728-.34415.03373-.02395.0664-.04878.10087-.07282.13922-.09921.27881-.19723.41762-.29667.04157-.02824.08384-.05786.12537-.08791.13424-.09321.26991-.18647.4052-.28144.04158-.02842.08385-.05667.12538-.08629.14171-.09677.28481-.19427.42721-.28924.03448-.024.06714-.04619.10088-.06839.01814-.0119.03728-.02395.055-.0371A42.86955,42.86955,0,0,0,55.85126,34.3747Z" transform="translate(-9 -2.99984)" style="fill:#5dc1a3;opacity:0.5;isolation:isolate"/><path d="M19.27693,43.33584a51.82473,51.82473,0,0,1,47.04766-9.95271q1.91985.53859,3.763,1.20943a58.83062,58.83062,0,0,1,6.6851-2.866A50.069,50.069,0,0,0,15.488,46.145a25.57945,25.57945,0,0,0-4.49855,9.75788A27.46345,27.46345,0,0,1,19.27693,43.33584Z" transform="translate(-9 -2.99984)" style="fill:#d9e9b5;opacity:0.30000001192092896;isolation:isolate"/><path d="M74.30167,10.53971A48.34075,48.34075,0,0,0,55.26493,7.11a54.064,54.064,0,0,0-30.17265,9.14494l3.22852.49136A48.70386,48.70386,0,0,0,9,50.20257a10.88748,10.88748,0,0,1,3.70973-2.79014,6.359,6.359,0,0,1,2.15426-.46312.95346.95346,0,0,0,.825-.41268A49.95658,49.95658,0,0,1,57.48135,27.20788c.09234-.00447.1257-.05366.18643-.1041a14.6046,14.6046,0,0,1,18.30265-.21541.25391.25391,0,0,0,.23441.05667C93.63133,24.511,82.12282,13.88776,74.30167,10.53971Z" transform="translate(-9 -2.99984)" style="fill:#00b9b0"/><path d="M49.42047,10.23128A51.15942,51.15942,0,0,0,25.223,16.27408l3.09784.47221A48.70386,48.70386,0,0,0,9,50.20257a10.88748,10.88748,0,0,1,3.70973-2.79014,6.359,6.359,0,0,1,2.15426-.46312.95346.95346,0,0,0,.825-.41268A49.95658,49.95658,0,0,1,57.48135,27.20788c.09234-.00447.1257-.05366.18643-.1041a14.6046,14.6046,0,0,1,18.30265-.21541.25391.25391,0,0,0,.23441.05667c4.29283-.5998,6.82927-1.69645,8.09744-3.05875A51.19715,51.19715,0,0,0,49.42047,10.23128Z" transform="translate(-9 -2.99984)" style="fill:#9fd39f;opacity:0.6000000238418579;isolation:isolate"/><path d="M58.09642,19.68769A54.79258,54.79258,0,0,0,9.012,50.10313c-.00461.03267-.00743.06677-.012.09944a10.88758,10.88758,0,0,1,3.70973-2.79014,6.359,6.359,0,0,1,2.15426-.46312.95349.95349,0,0,0,.825-.41268A49.95656,49.95656,0,0,1,57.48135,27.20788c.09234-.00447.12571-.05366.18643-.1041a14.60461,14.60461,0,0,1,18.30265-.21541.25391.25391,0,0,0,.23441.05667,20.486,20.486,0,0,0,6.08669-1.63983A54.57878,54.57878,0,0,0,58.09642,19.68769Z" transform="translate(-9 -2.99984)" style="fill:#45ba84"/><text x="-9" y="-2.99984"/><text transform="translate(108.7926 86)" style="font-size:100px;font-family:Orbitron-Bold, Orbitron;font-weight:700">B<tspan x="83.19824" y="0" style="letter-spacing:-0.024990234375em">o</tspan><tspan x="149.89746" y="0" style="letter-spacing:0.000009765625em">t</tspan></text><text transform="translate(301 86)" style="font-size:100px;fill:#fab612;font-family:Orbitron-Bold, Orbitron;font-weight:700">Fi</text></svg>