<?xml version="1.0" encoding="utf-8"?>
<!-- Generator: Adobe Illustrator 24.2.0, SVG Export Plug-In . SVG Version: 6.00 Build 0)  -->
<svg version="1.1" id="Layer_1" xmlns="http://www.w3.org/2000/svg" xmlns:xlink="http://www.w3.org/1999/xlink" x="0px" y="0px"
	 viewBox="0 0 402.6 109" style="enable-background:new 0 0 402.6 109;" xml:space="preserve">
<style type="text/css">
	.st0{fill:#008C6B;}
	.st1{opacity:0.2;fill:#101D10;enable-background:new    ;}
	.st2{opacity:0.4;fill:#25A249;enable-background:new    ;}
	.st3{fill:#7DCAA9;}
	.st4{opacity:0.3;fill:#18743A;enable-background:new    ;}
	.st5{opacity:0.6;fill:#5DC1A3;enable-background:new    ;}
	.st6{opacity:0.5;fill:url(#SVGID_1_);enable-background:new    ;}
	.st7{fill:#FDBB11;}
	.st8{opacity:0.5;fill:url(#SVGID_2_);enable-background:new    ;}
	.st9{opacity:0.3;fill:url(#SVGID_3_);enable-background:new    ;}
	.st10{opacity:0.1;fill:#EE4036;enable-background:new    ;}
	.st11{fill:#98D9F3;}
	.st12{opacity:0.3;fill:#6ABD45;enable-background:new    ;}
	.st13{opacity:0.2;fill:url(#SVGID_4_);enable-background:new    ;}
	.st14{opacity:0.5;fill:#5DC1A3;enable-background:new    ;}
	.st15{opacity:0.3;fill:#D9E9B5;enable-background:new    ;}
	.st16{fill:#00B9B0;}
	.st17{opacity:0.6;fill:#9FD39F;enable-background:new    ;}
	.st18{fill:#45BA84;}
	.st19{fill:#FFFFFF;}
	.st20{font-family:'Orbitron-Bold';}
	.st21{font-size:100px;}
	.st22{letter-spacing:-2;}
	.st23{fill:#FAB612;}
</style>
<path class="st0" d="M103,56.3c-0.4,1.2-0.9,2.4-1.4,3.6c-1.8,3.4-4.7,6.1-8.3,7.6c-8.1,3.6-17.5,0-21.2-8.1
	c-0.5-1.2-0.8-2.5-1.1-3.7c-0.1-0.5-0.2-1-0.2-1.5c0-0.3,0-0.6,0-0.9c0,0,0,0.1,0,0.1c-0.4-5.6,2.9-12.3,6.4-16.4
	c-1.8,0.4-14.7,1.2-14.7,1.2s-13,16.2-7.3,36.3c1.6,5.7,5.4,13.1,8.8,15.5c0.3,0,0.6,0,0.9,0H65c0.1,0,0.3,0,0.4,0h0.1
	c0.2,0,0.3,0,0.5,0h0.1c0.4,0,0.7,0,1.1,0c0,0,0.1,0,0.1,0c0.1,0,0.3,0,0.4,0c0,0,0.1,0,0.1,0c0.1,0,0.3,0,0.4,0c0,0,0.1,0,0.1,0
	c0.4,0,0.7-0.1,1.1-0.1c0,0,0.1,0,0.1,0c0.1,0,0.3,0,0.4,0c0,0,0.1,0,0.1,0c0.1,0,0.3,0,0.4-0.1l0.1,0c0.2,0,0.4-0.1,0.5-0.1h0
	c0.2,0,0.3-0.1,0.5-0.1c0,0,0.1,0,0.1,0c0.1,0,0.3,0,0.4-0.1c0.1,0,0.1,0,0.2,0c0.1,0,0.3-0.1,0.4-0.1c0,0,0.1,0,0.1,0
	c0.2,0,0.4-0.1,0.5-0.1l0,0c0.2,0,0.3-0.1,0.5-0.1c0,0,0.1,0,0.1,0c0.1,0,0.2-0.1,0.4-0.1c0.1,0,0.1,0,0.2,0c0.1,0,0.3-0.1,0.4-0.1
	c0,0,0.1,0,0.1,0c0.2,0,0.3-0.1,0.5-0.1l0,0c0.2,0,0.3-0.1,0.5-0.1c0.1,0,0.1,0,0.2,0c0.1,0,0.2-0.1,0.4-0.1c0.1,0,0.1,0,0.2-0.1
	c0.1,0,0.2-0.1,0.4-0.1c0.1,0,0.1,0,0.2-0.1c0.2-0.1,0.3-0.1,0.5-0.2l0,0c0.2-0.1,0.3-0.1,0.5-0.2c0.1,0,0.1,0,0.2-0.1
	c0.1,0,0.2-0.1,0.4-0.1c0.1,0,0.1,0,0.2-0.1c0.1,0,0.2-0.1,0.4-0.1c0.1,0,0.1,0,0.2-0.1c0.2-0.1,0.3-0.1,0.5-0.2
	c0.2-0.1,0.5-0.2,0.7-0.3c0.1,0,0.1-0.1,0.2-0.1c0.2-0.1,0.3-0.1,0.5-0.2c0.1,0,0.2-0.1,0.2-0.1c0.1-0.1,0.3-0.1,0.4-0.2
	c0.1,0,0.2-0.1,0.3-0.1c0.1-0.1,0.3-0.1,0.4-0.2c0.1,0,0.2-0.1,0.2-0.1c0.2-0.1,0.3-0.2,0.5-0.2c0.1,0,0.1-0.1,0.2-0.1
	c0.2-0.1,0.4-0.2,0.6-0.4c0,0,0.1,0,0.1-0.1c0.2-0.1,0.4-0.2,0.5-0.3c0.1,0,0.1-0.1,0.2-0.1c0.1-0.1,0.3-0.2,0.4-0.3
	c0.1,0,0.1-0.1,0.2-0.1c0.1-0.1,0.3-0.2,0.4-0.3c0.1,0,0.1-0.1,0.2-0.1c0.1-0.1,0.3-0.2,0.4-0.3c0.1,0,0.1-0.1,0.2-0.1
	c0.2-0.1,0.3-0.2,0.5-0.3c0,0,0.1,0,0.1-0.1c0.2-0.1,0.4-0.3,0.6-0.4c0,0,0.1-0.1,0.1-0.1c0.2-0.1,0.3-0.2,0.4-0.3
	c0.1,0,0.1-0.1,0.2-0.1c0.1-0.1,0.3-0.2,0.4-0.3c0.1-0.1,0.1-0.1,0.2-0.2c0.1-0.1,0.2-0.2,0.4-0.3c0.1,0,0.1-0.1,0.2-0.1
	c0.1-0.1,0.3-0.2,0.4-0.3c0,0,0.1-0.1,0.1-0.1c0.4-0.3,0.7-0.6,1-1c0,0,0.1-0.1,0.1-0.1c0.1-0.1,0.3-0.3,0.4-0.4
	c0,0,0.1-0.1,0.1-0.1c0.1-0.1,0.2-0.2,0.4-0.4c0.1-0.1,0.1-0.1,0.2-0.2c0.1-0.1,0.2-0.2,0.3-0.4c0,0,0.1-0.1,0.1-0.1
	c0.1-0.1,0.3-0.3,0.4-0.4c0,0,0.1-0.1,0.1-0.1c0.3-0.4,0.6-0.7,0.9-1.1c0,0,0.1-0.1,0.1-0.1c0.1-0.1,0.2-0.3,0.3-0.4
	c0-0.1,0.1-0.1,0.1-0.2c0.1-0.1,0.2-0.3,0.3-0.4c0-0.1,0.1-0.1,0.1-0.2c0.1-0.1,0.2-0.3,0.3-0.4c0,0,0.1-0.1,0.1-0.1
	c0.1-0.2,0.2-0.3,0.4-0.5c0,0,0,0,0,0c0.1-0.2,0.3-0.4,0.4-0.6c0,0,0,0,0,0c0.1-0.2,0.2-0.4,0.4-0.5c0,0,0.1-0.1,0.1-0.1
	c0.1-0.1,0.2-0.3,0.3-0.4c0-0.1,0.1-0.1,0.1-0.2c0.1-0.1,0.2-0.3,0.3-0.4l0.1-0.1l0,0C100.8,67,102.5,61.7,103,56.3z"/>
<path class="st1" d="M103,56.3c-0.4,1.2-0.9,2.4-1.4,3.6c-1.8,3.4-4.7,6.1-8.3,7.6c-8.1,3.6-17.5,0-21.2-8.1
	c-0.5-1.2-0.8-2.5-1.1-3.7c-0.1-0.5-0.2-1-0.2-1.5c0-0.3,0-0.6,0-0.9c0,0,0,0.1,0,0.1c-0.4-5.6,2.9-12.3,6.4-16.4
	c-1.8,0.4-14.7,1.2-14.7,1.2s-13,16.2-7.3,36.3c1.6,5.7,5.4,13.1,8.8,15.5c0.3,0,0.6,0,0.9,0H65c0.1,0,0.3,0,0.4,0h0.1
	c0.2,0,0.3,0,0.5,0h0.1c0.4,0,0.7,0,1.1,0c0,0,0.1,0,0.1,0c0.1,0,0.3,0,0.4,0c0,0,0.1,0,0.1,0c0.1,0,0.3,0,0.4,0c0,0,0.1,0,0.1,0
	c0.4,0,0.7-0.1,1.1-0.1c0,0,0.1,0,0.1,0c0.1,0,0.3,0,0.4,0c0,0,0.1,0,0.1,0c0.1,0,0.3,0,0.4-0.1l0.1,0c0.2,0,0.4-0.1,0.5-0.1h0
	c0.2,0,0.3-0.1,0.5-0.1c0,0,0.1,0,0.1,0c0.1,0,0.3,0,0.4-0.1c0.1,0,0.1,0,0.2,0c0.1,0,0.3-0.1,0.4-0.1c0,0,0.1,0,0.1,0
	c0.2,0,0.4-0.1,0.5-0.1l0,0c0.2,0,0.3-0.1,0.5-0.1c0,0,0.1,0,0.1,0c0.1,0,0.2-0.1,0.4-0.1c0.1,0,0.1,0,0.2,0c0.1,0,0.3-0.1,0.4-0.1
	c0,0,0.1,0,0.1,0c0.2,0,0.3-0.1,0.5-0.1l0,0c0.2,0,0.3-0.1,0.5-0.1c0.1,0,0.1,0,0.2,0c0.1,0,0.2-0.1,0.4-0.1c0.1,0,0.1,0,0.2-0.1
	c0.1,0,0.2-0.1,0.4-0.1c0.1,0,0.1,0,0.2-0.1c0.2-0.1,0.3-0.1,0.5-0.2l0,0c0.2-0.1,0.3-0.1,0.5-0.2c0.1,0,0.1,0,0.2-0.1
	c0.1,0,0.2-0.1,0.4-0.1c0.1,0,0.1,0,0.2-0.1c0.1,0,0.2-0.1,0.4-0.1c0.1,0,0.1,0,0.2-0.1c0.2-0.1,0.3-0.1,0.5-0.2
	c0.2-0.1,0.5-0.2,0.7-0.3c0.1,0,0.1-0.1,0.2-0.1c0.2-0.1,0.3-0.1,0.5-0.2c0.1,0,0.2-0.1,0.2-0.1c0.1-0.1,0.3-0.1,0.4-0.2
	c0.1,0,0.2-0.1,0.3-0.1c0.1-0.1,0.3-0.1,0.4-0.2c0.1,0,0.2-0.1,0.2-0.1c0.2-0.1,0.3-0.2,0.5-0.2c0.1,0,0.1-0.1,0.2-0.1
	c0.2-0.1,0.4-0.2,0.6-0.4c0,0,0.1,0,0.1-0.1c0.2-0.1,0.4-0.2,0.5-0.3c0.1,0,0.1-0.1,0.2-0.1c0.1-0.1,0.3-0.2,0.4-0.3
	c0.1,0,0.1-0.1,0.2-0.1c0.1-0.1,0.3-0.2,0.4-0.3c0.1,0,0.1-0.1,0.2-0.1c0.1-0.1,0.3-0.2,0.4-0.3c0.1,0,0.1-0.1,0.2-0.1
	c0.2-0.1,0.3-0.2,0.5-0.3c0,0,0.1,0,0.1-0.1c0.2-0.1,0.4-0.3,0.6-0.4c0,0,0.1-0.1,0.1-0.1c0.2-0.1,0.3-0.2,0.4-0.3
	c0.1,0,0.1-0.1,0.2-0.1c0.1-0.1,0.3-0.2,0.4-0.3c0.1-0.1,0.1-0.1,0.2-0.2c0.1-0.1,0.2-0.2,0.4-0.3c0.1,0,0.1-0.1,0.2-0.1
	c0.1-0.1,0.3-0.2,0.4-0.3c0,0,0.1-0.1,0.1-0.1c0.4-0.3,0.7-0.6,1-1c0,0,0.1-0.1,0.1-0.1c0.1-0.1,0.3-0.3,0.4-0.4
	c0,0,0.1-0.1,0.1-0.1c0.1-0.1,0.2-0.2,0.4-0.4c0.1-0.1,0.1-0.1,0.2-0.2c0.1-0.1,0.2-0.2,0.3-0.4c0,0,0.1-0.1,0.1-0.1
	c0.1-0.1,0.3-0.3,0.4-0.4c0,0,0.1-0.1,0.1-0.1c0.3-0.4,0.6-0.7,0.9-1.1c0,0,0.1-0.1,0.1-0.1c0.1-0.1,0.2-0.3,0.3-0.4
	c0-0.1,0.1-0.1,0.1-0.2c0.1-0.1,0.2-0.3,0.3-0.4c0-0.1,0.1-0.1,0.1-0.2c0.1-0.1,0.2-0.3,0.3-0.4c0,0,0.1-0.1,0.1-0.1
	c0.1-0.2,0.2-0.3,0.4-0.5c0,0,0,0,0,0c0.1-0.2,0.3-0.4,0.4-0.6c0,0,0,0,0,0c0.1-0.2,0.2-0.4,0.4-0.5c0,0,0.1-0.1,0.1-0.1
	c0.1-0.1,0.2-0.3,0.3-0.4c0-0.1,0.1-0.1,0.1-0.2c0.1-0.1,0.2-0.3,0.3-0.4l0.1-0.1l0,0C100.8,67,102.5,61.7,103,56.3z"/>
<path class="st2" d="M101.6,60c-1.8,3.4-4.7,6.1-8.3,7.6c-8.1,3.6-17.5,0-21.2-8.1c-0.5-1.2-0.8-2.5-1.1-3.7c-0.1-0.5-0.2-1-0.2-1.5
	c0-0.3,0-0.6,0-0.9c0,0,0,0.1,0,0.1c-0.4-5.2,2.5-11.4,5.7-15.6c-9.5,5.4-12.9,17.5-7.5,27c5.4,9.5,17.5,12.9,27,7.5
	c0.9-0.5,1.7-1.1,2.5-1.7c2.5-4.4,4-9.3,4.5-14.3C102.6,57.6,102.1,58.8,101.6,60z"/>
<path class="st3" d="M97.7,75.3c-0.1,0.2-0.3,0.3-0.4,0.4c-11.5,7.4-26.8,4.1-34.2-7.4c-2-3.1-3.3-6.6-3.7-10.2
	c-0.1-1.1-0.2-2.1-0.2-3.2c0-6.3,2.4-12.3,6.7-16.9c-3.2,0.2-6.1,0.6-7.2,0.8c-5.1,1.3-9.9,3.9-13.7,7.6c-7,6.6-11.9,16.4-14.2,26.5
	c-1.8,7.8-0.2,19.1,2.8,23.9c0.4,0.2,0.7,0.3,1.1,0.5c0,0,0.1,0,0.1,0.1c0.2,0.1,0.3,0.1,0.5,0.2c0,0,0.1,0,0.1,0.1
	c0.2,0.1,0.4,0.2,0.5,0.2c0,0,0.1,0,0.1,0c0.4,0.2,0.9,0.4,1.3,0.5c0,0,0.1,0,0.1,0.1c0.2,0.1,0.3,0.1,0.5,0.2c0.1,0,0.1,0,0.2,0.1
	c0.2,0.1,0.4,0.1,0.5,0.2c0,0,0.1,0,0.1,0c0.4,0.2,0.9,0.3,1.3,0.4c0.1,0,0.1,0,0.2,0c0.2,0.1,0.3,0.1,0.5,0.2l0.2,0.1
	c0.2,0.1,0.4,0.1,0.5,0.1c0,0,0.1,0,0.1,0c0.2,0.1,0.5,0.1,0.7,0.2l0,0c0.2,0.1,0.4,0.1,0.7,0.2c0.1,0,0.1,0,0.2,0
	c0.2,0,0.3,0.1,0.5,0.1c0.1,0,0.1,0,0.2,0c0.2,0,0.3,0.1,0.5,0.1c0.1,0,0.1,0,0.2,0c0.2,0,0.5,0.1,0.7,0.1l0,0
	c0.2,0,0.4,0.1,0.7,0.1c0.1,0,0.1,0,0.2,0c0.2,0,0.3,0.1,0.5,0.1c0.1,0,0.1,0,0.2,0c0.2,0,0.3,0.1,0.5,0.1c0.1,0,0.1,0,0.2,0
	c0.2,0,0.5,0.1,0.7,0.1l0,0c0.2,0,0.4,0.1,0.7,0.1c0.1,0,0.1,0,0.2,0c0.2,0,0.3,0,0.5,0.1c0.1,0,0.2,0,0.2,0c0.2,0,0.3,0,0.5,0
	c0.1,0,0.1,0,0.2,0c0.2,0,0.5,0,0.7,0.1h0c0.2,0,0.5,0,0.7,0c0.1,0,0.1,0,0.2,0c0.2,0,0.3,0,0.5,0c0.1,0,0.2,0,0.3,0
	c0.2,0,0.3,0,0.5,0l0.2,0c0.2,0,0.5,0,0.7,0c0.3,0,0.6,0,1,0c0.1,0,0.2,0,0.3,0c0.2,0,0.4,0,0.7,0c0.1,0,0.2,0,0.4,0
	c0.2,0,0.4,0,0.6,0c0.1,0,0.2,0,0.4,0c0.2,0,0.4,0,0.6,0c0.1,0,0.2,0,0.3,0c0.2,0,0.5,0,0.7-0.1c0.1,0,0.2,0,0.3,0
	c0.3,0,0.6-0.1,0.9-0.1c0.1,0,0.1,0,0.1,0c0.3,0,0.5-0.1,0.8-0.1c0.1,0,0.2,0,0.3,0c0.2,0,0.4-0.1,0.6-0.1c0.1,0,0.2,0,0.3-0.1
	c0.2,0,0.4-0.1,0.6-0.1c0.1,0,0.2,0,0.3-0.1c0.2,0,0.4-0.1,0.6-0.1c0.1,0,0.2,0,0.3-0.1c0.3-0.1,0.5-0.1,0.8-0.2c0,0,0.1,0,0.1,0
	c0.3-0.1,0.6-0.1,0.9-0.2c0.1,0,0.1,0,0.2,0c0.2-0.1,0.5-0.1,0.7-0.2c0.1,0,0.2-0.1,0.3-0.1c0.2-0.1,0.4-0.1,0.6-0.2
	c0.1,0,0.2-0.1,0.3-0.1c0.2-0.1,0.4-0.1,0.6-0.2c0.1,0,0.2-0.1,0.3-0.1c0.2-0.1,0.4-0.1,0.6-0.2c0.1,0,0.2-0.1,0.2-0.1
	c0.6-0.2,1.2-0.4,1.8-0.6c0.1,0,0.1,0,0.2-0.1c0.2-0.1,0.5-0.2,0.7-0.3c0.1,0,0.2-0.1,0.3-0.1c0.2-0.1,0.4-0.2,0.6-0.3
	c0.1,0,0.2-0.1,0.3-0.1c0.2-0.1,0.4-0.2,0.6-0.3c0.1,0,0.2-0.1,0.2-0.1c0.2-0.1,0.5-0.2,0.7-0.3c0,0,0.1,0,0.1-0.1
	c0.6-0.3,1.1-0.6,1.7-0.8c0.1,0,0.1-0.1,0.2-0.1c0.2-0.1,0.4-0.2,0.6-0.3c0.1,0,0.2-0.1,0.2-0.1c0.2-0.1,0.4-0.2,0.6-0.3
	c0.1,0,0.2-0.1,0.2-0.1c0.2-0.1,0.4-0.2,0.6-0.4c0.1,0,0.1-0.1,0.2-0.1c0.2-0.1,0.5-0.3,0.7-0.4c0,0,0,0,0.1,0
	c0.3-0.2,0.5-0.3,0.8-0.5c0,0,0,0,0,0c0.2-0.2,0.5-0.3,0.7-0.5c0.1,0,0.1-0.1,0.2-0.1c0.2-0.1,0.4-0.3,0.6-0.4
	c0.1-0.1,0.1-0.1,0.2-0.2c0.2-0.1,0.4-0.3,0.5-0.4c0,0,0.1-0.1,0.1-0.1h0C89.6,87.3,94.3,81.7,97.7,75.3z"/>
<path class="st4" d="M97.7,75.3c-0.1,0.2-0.3,0.3-0.4,0.4c-11.5,7.4-26.8,4.1-34.2-7.4c-2-3.1-3.3-6.6-3.7-10.2
	c-0.1-1.1-0.2-2.1-0.2-3.2c0-6.3,2.4-12.3,6.7-16.9c-3.2,0.2-6.1,0.6-7.2,0.8c-5.1,1.3-9.9,3.9-13.7,7.6c-7,6.6-11.9,16.4-14.2,26.5
	c-1.8,7.8-0.2,19.1,2.8,23.9c0.4,0.2,0.7,0.3,1.1,0.5c0,0,0.1,0,0.1,0.1c0.2,0.1,0.3,0.1,0.5,0.2c0,0,0.1,0,0.1,0.1
	c0.2,0.1,0.4,0.2,0.5,0.2c0,0,0.1,0,0.1,0c0.4,0.2,0.9,0.4,1.3,0.5c0,0,0.1,0,0.1,0.1c0.2,0.1,0.3,0.1,0.5,0.2c0.1,0,0.1,0,0.2,0.1
	c0.2,0.1,0.4,0.1,0.5,0.2c0,0,0.1,0,0.1,0c0.4,0.2,0.9,0.3,1.3,0.4c0.1,0,0.1,0,0.2,0c0.2,0.1,0.3,0.1,0.5,0.2l0.2,0.1
	c0.2,0.1,0.4,0.1,0.5,0.1c0,0,0.1,0,0.1,0c0.2,0.1,0.5,0.1,0.7,0.2l0,0c0.2,0.1,0.4,0.1,0.7,0.2c0.1,0,0.1,0,0.2,0
	c0.2,0,0.3,0.1,0.5,0.1c0.1,0,0.1,0,0.2,0c0.2,0,0.3,0.1,0.5,0.1c0.1,0,0.1,0,0.2,0c0.2,0,0.5,0.1,0.7,0.1l0,0
	c0.2,0,0.4,0.1,0.7,0.1c0.1,0,0.1,0,0.2,0c0.2,0,0.3,0.1,0.5,0.1c0.1,0,0.1,0,0.2,0c0.2,0,0.3,0.1,0.5,0.1c0.1,0,0.1,0,0.2,0
	c0.2,0,0.5,0.1,0.7,0.1l0,0c0.2,0,0.4,0.1,0.7,0.1c0.1,0,0.1,0,0.2,0c0.2,0,0.3,0,0.5,0.1c0.1,0,0.2,0,0.2,0c0.2,0,0.3,0,0.5,0
	c0.1,0,0.1,0,0.2,0c0.2,0,0.5,0,0.7,0.1h0c0.2,0,0.5,0,0.7,0c0.1,0,0.1,0,0.2,0c0.2,0,0.3,0,0.5,0c0.1,0,0.2,0,0.3,0
	c0.2,0,0.3,0,0.5,0l0.2,0c0.2,0,0.5,0,0.7,0c0.3,0,0.6,0,1,0c0.1,0,0.2,0,0.3,0c0.2,0,0.4,0,0.7,0c0.1,0,0.2,0,0.4,0
	c0.2,0,0.4,0,0.6,0c0.1,0,0.2,0,0.4,0c0.2,0,0.4,0,0.6,0c0.1,0,0.2,0,0.3,0c0.2,0,0.5,0,0.7-0.1c0.1,0,0.2,0,0.3,0
	c0.3,0,0.6-0.1,0.9-0.1c0.1,0,0.1,0,0.1,0c0.3,0,0.5-0.1,0.8-0.1c0.1,0,0.2,0,0.3,0c0.2,0,0.4-0.1,0.6-0.1c0.1,0,0.2,0,0.3-0.1
	c0.2,0,0.4-0.1,0.6-0.1c0.1,0,0.2,0,0.3-0.1c0.2,0,0.4-0.1,0.6-0.1c0.1,0,0.2,0,0.3-0.1c0.3-0.1,0.5-0.1,0.8-0.2c0,0,0.1,0,0.1,0
	c0.3-0.1,0.6-0.1,0.9-0.2c0.1,0,0.1,0,0.2,0c0.2-0.1,0.5-0.1,0.7-0.2c0.1,0,0.2-0.1,0.3-0.1c0.2-0.1,0.4-0.1,0.6-0.2
	c0.1,0,0.2-0.1,0.3-0.1c0.2-0.1,0.4-0.1,0.6-0.2c0.1,0,0.2-0.1,0.3-0.1c0.2-0.1,0.4-0.1,0.6-0.2c0.1,0,0.2-0.1,0.2-0.1
	c0.6-0.2,1.2-0.4,1.8-0.6c0.1,0,0.1,0,0.2-0.1c0.2-0.1,0.5-0.2,0.7-0.3c0.1,0,0.2-0.1,0.3-0.1c0.2-0.1,0.4-0.2,0.6-0.3
	c0.1,0,0.2-0.1,0.3-0.1c0.2-0.1,0.4-0.2,0.6-0.3c0.1,0,0.2-0.1,0.2-0.1c0.2-0.1,0.5-0.2,0.7-0.3c0,0,0.1,0,0.1-0.1
	c0.6-0.3,1.1-0.6,1.7-0.8c0.1,0,0.1-0.1,0.2-0.1c0.2-0.1,0.4-0.2,0.6-0.3c0.1,0,0.2-0.1,0.2-0.1c0.2-0.1,0.4-0.2,0.6-0.3
	c0.1,0,0.2-0.1,0.2-0.1c0.2-0.1,0.4-0.2,0.6-0.4c0.1,0,0.1-0.1,0.2-0.1c0.2-0.1,0.5-0.3,0.7-0.4c0,0,0,0,0.1,0
	c0.3-0.2,0.5-0.3,0.8-0.5c0,0,0,0,0,0c0.2-0.2,0.5-0.3,0.7-0.5c0.1,0,0.1-0.1,0.2-0.1c0.2-0.1,0.4-0.3,0.6-0.4
	c0.1-0.1,0.1-0.1,0.2-0.2c0.2-0.1,0.4-0.3,0.5-0.4c0,0,0.1-0.1,0.1-0.1h0C89.6,87.3,94.3,81.7,97.7,75.3z"/>
<path class="st5" d="M97.3,75.7c-11.5,7.4-26.8,4.1-34.2-7.4c-2-3.1-3.3-6.6-3.7-10.2c-0.1-1.1-0.2-2.1-0.2-3.2
	c0-6.3,2.4-12.3,6.7-16.9c-0.8,0.1-1.6,0.1-2.3,0.2C48.9,47.9,45.1,67.5,54.8,82c5.2,7.7,13.5,12.8,22.7,13.8
	c0.2-0.1,0.4-0.2,0.6-0.3c0.1,0,0.2-0.1,0.2-0.1c0.2-0.1,0.4-0.2,0.6-0.3c0.1,0,0.2-0.1,0.2-0.1c0.2-0.1,0.4-0.2,0.6-0.4
	c0.1,0,0.1-0.1,0.2-0.1c0.2-0.1,0.5-0.3,0.7-0.4c0,0,0,0,0.1,0c0.3-0.2,0.5-0.3,0.8-0.5c0,0,0,0,0,0c0.2-0.2,0.5-0.3,0.7-0.5
	c0.1,0,0.1-0.1,0.2-0.1c0.2-0.1,0.4-0.3,0.6-0.4c0.1-0.1,0.1-0.1,0.2-0.2c0.2-0.1,0.4-0.3,0.5-0.4c0,0,0.1-0.1,0.1-0.1h0
	c5.8-4.4,10.5-10,13.8-16.4C97.6,75.5,97.4,75.6,97.3,75.7z"/>
<linearGradient id="SVGID_1_" gradientUnits="userSpaceOnUse" x1="56.1459" y1="703.2159" x2="101.7971" y2="720.8367" gradientTransform="matrix(1 0 0 1 -27.3977 -641.0213)">
	<stop  offset="0" style="stop-color:#FAFBFB;stop-opacity:0"/>
	<stop  offset="0.1118" style="stop-color:#D7E7F2;stop-opacity:0.1904"/>
	<stop  offset="0.274" style="stop-color:#ABCCE7;stop-opacity:0.4348"/>
	<stop  offset="0.4344" style="stop-color:#86B7DE;stop-opacity:0.6379"/>
	<stop  offset="0.5899" style="stop-color:#69A6D6;stop-opacity:0.7958"/>
	<stop  offset="0.7388" style="stop-color:#559AD1;stop-opacity:0.9086"/>
	<stop  offset="0.8787" style="stop-color:#4892CE;stop-opacity:0.9767"/>
	<stop  offset="1" style="stop-color:#4490CD"/>
</linearGradient>
<path class="st6" d="M35.3,87.5c0-18.1,7.4-35.4,20.5-47.9c-4.1,1.5-7.8,3.8-10.9,6.8c-7,6.6-11.9,16.4-14.2,26.5
	c-1.8,7.8-0.2,19.1,2.8,23.9c0.4,0.2,0.7,0.3,1.1,0.5c0,0,0.1,0,0.1,0.1c0.2,0.1,0.3,0.1,0.5,0.2c0,0,0.1,0,0.1,0.1
	c0.2,0.1,0.4,0.2,0.5,0.2c0,0,0.1,0,0.1,0c0.1,0,0.1,0.1,0.2,0.1C35.6,94.6,35.3,91.1,35.3,87.5z"/>
<path class="st7" d="M90.1,38.3c4.4,1.2,6.7,3.3,7,5.1c3.1-4.2,2.9-10-0.5-14c-5.8-6.9-23.8-6.6-23.8-6.6s-5.2,1.6-11.1,7.3
	c-7.2,6.9-13.1,13.7-13.1,13.7C55.2,38.1,84.6,36.8,90.1,38.3z"/>
<linearGradient id="SVGID_2_" gradientUnits="userSpaceOnUse" x1="97.7672" y1="676.0639" x2="125.676" y2="671.1428" gradientTransform="matrix(1 0 0 1 -27.3977 -641.0213)">
	<stop  offset="0" style="stop-color:#FFFFFF;stop-opacity:0"/>
	<stop  offset="8.797000e-02" style="stop-color:#FFFFFF;stop-opacity:4.749000e-02"/>
	<stop  offset="0.2476" style="stop-color:#FFFFFF;stop-opacity:0.1738"/>
	<stop  offset="0.4608" style="stop-color:#FFFFFF;stop-opacity:0.3786"/>
	<stop  offset="0.7197" style="stop-color:#FFFFFF;stop-opacity:0.6622"/>
	<stop  offset="1" style="stop-color:#FFFFFF"/>
</linearGradient>
<path class="st8" d="M95,32.2c2.3,2.7,3.4,6.3,2.9,9.9c2.2-4.1,1.7-9.2-1.3-12.8c-5.8-6.9-23.8-6.6-23.8-6.6c-1.5,0.5-2.9,1.2-4.3,2
	C71.5,24.7,89,25.1,95,32.2z"/>
<linearGradient id="SVGID_3_" gradientUnits="userSpaceOnUse" x1="115.6483" y1="693.1737" x2="91.2341" y2="668.7595" gradientTransform="matrix(1 0 0 1 -27.3977 -641.0213)">
	<stop  offset="0.1774" style="stop-color:#FFFFFF;stop-opacity:0"/>
	<stop  offset="1" style="stop-color:#F6921E"/>
</linearGradient>
<path class="st9" d="M90.1,38.3c4.4,1.2,6.7,3.3,7,5.1c3.1-4.2,2.9-10-0.5-14c-5.8-6.9-23.8-6.6-23.8-6.6s-5.2,1.6-11.1,7.3
	c-7.2,6.9-13.1,13.7-13.1,13.7C55.2,38.1,84.6,36.8,90.1,38.3z"/>
<path class="st10" d="M91.4,36.6c-7.6-2.2-27.3-1.6-38.5,1.8c-1.5,1.7-4.3,5.3-4.3,5.3c6.6-5.6,36-6.9,41.5-5.4
	c4.4,1.2,6.7,3.3,7,5.1C97.5,42.8,97.1,38.3,91.4,36.6z"/>
<path class="st11" d="M53.8,39.6c0.2-0.1,0.3-0.3,0.5-0.4l0,0c0.1-0.1,0.3-0.3,0.4-0.4c0,0,0,0,0.1,0c0.1-0.1,0.3-0.3,0.4-0.4
	c0,0,0,0,0,0c0.7-0.6,1.3-1.2,2-1.7c0,0,0,0,0,0c0.2-0.1,0.3-0.2,0.5-0.4c0,0,0,0,0.1-0.1c0.1-0.1,0.3-0.2,0.4-0.3
	c0,0,0.1,0,0.1-0.1l0.5-0.4c0,0,0,0,0.1,0c0.5-0.4,1-0.8,1.6-1.2c0,0,0,0,0,0c0.2-0.1,0.3-0.2,0.5-0.3c0,0,0.1,0,0.1-0.1
	c0.1-0.1,0.3-0.2,0.4-0.3c0,0,0.1-0.1,0.1-0.1c0.1-0.1,0.3-0.2,0.4-0.3c0,0,0.1-0.1,0.1-0.1c0.1-0.1,0.3-0.2,0.4-0.3
	c0,0,0.1,0,0.1-0.1c0.2-0.1,0.4-0.2,0.5-0.4l0,0c0.4-0.2,0.7-0.5,1.1-0.7c0,0,0.1-0.1,0.1-0.1c0.1-0.1,0.3-0.2,0.4-0.3
	c0.1,0,0.1-0.1,0.2-0.1c0.1-0.1,0.2-0.2,0.4-0.2c0.1,0,0.1-0.1,0.2-0.1c0.1-0.1,0.2-0.1,0.4-0.2l0.2-0.1c0.1-0.1,0.3-0.2,0.4-0.2
	c0.1,0,0.1-0.1,0.2-0.1c0.2-0.1,0.3-0.2,0.5-0.3c0,0,0,0,0,0c0.2-0.1,0.4-0.2,0.6-0.3c0,0,0.1,0,0.1-0.1c0.1-0.1,0.3-0.1,0.4-0.2
	c0.1,0,0.1-0.1,0.2-0.1c0.1-0.1,0.2-0.1,0.4-0.2c0.1,0,0.1-0.1,0.2-0.1c0.1-0.1,0.2-0.1,0.3-0.2c0.1,0,0.1-0.1,0.2-0.1
	c0.1-0.1,0.2-0.1,0.4-0.2c0.1,0,0.1-0.1,0.2-0.1c0.1-0.1,0.3-0.1,0.4-0.2c0.1,0,0.1-0.1,0.2-0.1c0.2-0.1,0.4-0.2,0.6-0.3
	c-20.9-8.7-44.9-2.3-58.8,15.5c-2.6,3.3-9,14.1-2.2,30.3c0.3-3.1,1.3-6,2.9-8.7c1-1.5,2.2-2.9,3.5-4.2C12.4,75.3,19.7,90.9,33.7,97
	l0,0l0,0l0,0C30.8,75.8,38.2,54.4,53.8,39.6L53.8,39.6z"/>
<path class="st12" d="M53.8,39.6c0.2-0.1,0.3-0.3,0.5-0.4l0,0c0.1-0.1,0.3-0.3,0.4-0.4c0,0,0,0,0.1,0c0.1-0.1,0.3-0.3,0.4-0.4
	c0,0,0,0,0,0c0.7-0.6,1.3-1.2,2-1.7c0,0,0,0,0,0c0.2-0.1,0.3-0.2,0.5-0.4c0,0,0,0,0.1-0.1c0.1-0.1,0.3-0.2,0.4-0.3
	c0,0,0.1,0,0.1-0.1l0.5-0.4c0,0,0,0,0.1,0c0.5-0.4,1-0.8,1.6-1.2c0,0,0,0,0,0c0.2-0.1,0.3-0.2,0.5-0.3c0,0,0.1,0,0.1-0.1
	c0.1-0.1,0.3-0.2,0.4-0.3c0,0,0.1-0.1,0.1-0.1c0.1-0.1,0.3-0.2,0.4-0.3c0,0,0.1-0.1,0.1-0.1c0.1-0.1,0.3-0.2,0.4-0.3
	c0,0,0.1,0,0.1-0.1c0.2-0.1,0.4-0.2,0.5-0.4l0,0c0.4-0.2,0.7-0.5,1.1-0.7c0,0,0.1-0.1,0.1-0.1c0.1-0.1,0.3-0.2,0.4-0.3
	c0.1,0,0.1-0.1,0.2-0.1c0.1-0.1,0.2-0.2,0.4-0.2c0.1,0,0.1-0.1,0.2-0.1c0.1-0.1,0.2-0.1,0.4-0.2l0.2-0.1c0.1-0.1,0.3-0.2,0.4-0.2
	c0.1,0,0.1-0.1,0.2-0.1c0.2-0.1,0.3-0.2,0.5-0.3c0,0,0,0,0,0c0.2-0.1,0.4-0.2,0.6-0.3c0,0,0.1,0,0.1-0.1c0.1-0.1,0.3-0.1,0.4-0.2
	c0.1,0,0.1-0.1,0.2-0.1c0.1-0.1,0.2-0.1,0.4-0.2c0.1,0,0.1-0.1,0.2-0.1c0.1-0.1,0.2-0.1,0.3-0.2c0.1,0,0.1-0.1,0.2-0.1
	c0.1-0.1,0.2-0.1,0.4-0.2c0.1,0,0.1-0.1,0.2-0.1c0.1-0.1,0.3-0.1,0.4-0.2c0.1,0,0.1-0.1,0.2-0.1c0.2-0.1,0.4-0.2,0.6-0.3
	c-20.9-8.7-44.9-2.3-58.8,15.5c-2.6,3.3-9,14.1-2.2,30.3c0.3-3.1,1.3-6,2.9-8.7c1-1.5,2.2-2.9,3.5-4.2C12.4,75.3,19.7,90.9,33.7,97
	l0,0l0,0l0,0C30.8,75.8,38.2,54.4,53.8,39.6L53.8,39.6z"/>
<linearGradient id="SVGID_4_" gradientUnits="userSpaceOnUse" x1="74.0184" y1="676.5781" x2="82.2317" y2="739.9288" gradientTransform="matrix(1 0 0 1 -27.3977 -641.0213)">
	<stop  offset="0" style="stop-color:#72C3ED;stop-opacity:0"/>
	<stop  offset="3.354000e-02" style="stop-color:#6DBEEA;stop-opacity:0.1026"/>
	<stop  offset="0.1111" style="stop-color:#64B3E3;stop-opacity:0.3118"/>
	<stop  offset="0.1949" style="stop-color:#5BAADD;stop-opacity:0.4973"/>
	<stop  offset="0.284" style="stop-color:#54A2D8;stop-opacity:0.6535"/>
	<stop  offset="0.3799" style="stop-color:#4E9BD4;stop-opacity:0.7804"/>
	<stop  offset="0.4853" style="stop-color:#4A96D1;stop-opacity:0.8784"/>
	<stop  offset="0.6049" style="stop-color:#4693CF;stop-opacity:0.9475"/>
	<stop  offset="0.7511" style="stop-color:#4591CD;stop-opacity:0.9879"/>
	<stop  offset="1" style="stop-color:#4490CD"/>
</linearGradient>
<path class="st13" d="M26,71.3c0,9.1,2.6,18.1,7.7,25.7c0,0,0.1,0,0.1,0l0,0l0,0l0,0c-2.9-21.2,4.5-42.6,20.1-57.4
	c0.2-0.1,0.3-0.3,0.5-0.4l0,0c0.1-0.1,0.3-0.3,0.4-0.4c0,0,0,0,0.1,0c0.1-0.1,0.3-0.3,0.4-0.4c0,0,0,0,0,0c0.7-0.6,1.3-1.2,2-1.7
	c0,0,0,0,0,0c0.2-0.1,0.3-0.2,0.5-0.4c0,0,0,0,0.1-0.1c0.1-0.1,0.3-0.2,0.4-0.3c0,0,0.1,0,0.1-0.1l0.5-0.4c0,0,0,0,0.1,0
	c0.5-0.4,1-0.8,1.6-1.2c0,0,0,0,0,0c0.2-0.1,0.3-0.2,0.5-0.3c0,0,0.1,0,0.1-0.1c0.1-0.1,0.3-0.2,0.4-0.3c0,0,0.1-0.1,0.1-0.1
	c0.1-0.1,0.3-0.2,0.4-0.3c0,0,0.1-0.1,0.1-0.1c0.1-0.1,0.3-0.2,0.4-0.3c0,0,0.1,0,0.1-0.1c0.2-0.1,0.4-0.2,0.5-0.4l0,0
	c0.4-0.2,0.7-0.5,1.1-0.7c0,0,0.1-0.1,0.1-0.1c0.1-0.1,0.3-0.2,0.4-0.3c0.1,0,0.1-0.1,0.2-0.1c0.1-0.1,0.2-0.2,0.4-0.2
	c0.1,0,0.1-0.1,0.2-0.1c0.1-0.1,0.2-0.1,0.4-0.2l0.2-0.1c0.1-0.1,0.3-0.2,0.4-0.2c0.1,0,0.1-0.1,0.2-0.1c0.2-0.1,0.3-0.2,0.5-0.3
	c0,0,0,0,0,0c0.2-0.1,0.4-0.2,0.6-0.3c0,0,0.1,0,0.1-0.1c0.1-0.1,0.3-0.1,0.4-0.2c0.1,0,0.1-0.1,0.2-0.1c0.1-0.1,0.2-0.1,0.4-0.2
	c0.1,0,0.1-0.1,0.2-0.1c0.1-0.1,0.2-0.1,0.3-0.2c0.1,0,0.1-0.1,0.2-0.1c0.1-0.1,0.2-0.1,0.4-0.2c0.1,0,0.1-0.1,0.2-0.1
	c0.1-0.1,0.3-0.1,0.4-0.2c0.1,0,0.1-0.1,0.2-0.1c0.2-0.1,0.4-0.2,0.6-0.3c-2.4-1-4.9-1.8-7.4-2.4C41.8,29.5,26,48.8,26,71.3z"/>
<path class="st14" d="M52.8,31.4c-23.2,0-42.2,18.6-42.7,41.8c0,0.1,0.1,0.2,0.1,0.3c0.3-3.1,1.3-6,2.9-8.7c1-1.5,2.2-2.9,3.5-4.2
	C12.4,75.3,19.7,90.9,33.7,97l0,0l0,0l0,0c-2.9-21.2,4.5-42.6,20.1-57.4c0.2-0.1,0.3-0.3,0.5-0.4l0,0c0.1-0.1,0.3-0.3,0.4-0.4
	c0,0,0,0,0.1,0c0.1-0.1,0.3-0.3,0.4-0.4c0,0,0,0,0,0c0.7-0.6,1.3-1.2,2-1.7c0,0,0,0,0,0c0.2-0.1,0.3-0.2,0.5-0.4c0,0,0,0,0.1-0.1
	c0.1-0.1,0.3-0.2,0.4-0.3c0,0,0.1,0,0.1-0.1l0.5-0.4c0,0,0,0,0.1,0c0.5-0.4,1-0.8,1.6-1.2c0,0,0,0,0,0c0.2-0.1,0.3-0.2,0.5-0.3
	c0,0,0.1,0,0.1-0.1c0.1-0.1,0.3-0.2,0.4-0.3c0,0,0.1-0.1,0.1-0.1c0.1-0.1,0.3-0.2,0.4-0.3c0,0,0.1-0.1,0.1-0.1
	c0.1-0.1,0.3-0.2,0.4-0.3c0,0,0.1,0,0.1-0.1c0,0,0,0,0.1,0C59.4,31.8,56.1,31.4,52.8,31.4z"/>
<path class="st15" d="M16.3,40.3c13.1-10.8,30.7-14.6,47-10c1.3,0.4,2.5,0.8,3.8,1.2c2.2-1.1,4.4-2,6.7-2.9
	C52.5,18.5,27,24.5,12.5,43.1C10.3,46,8.8,49.4,8,52.9C9.5,48,12.4,43.7,16.3,40.3z"/>
<path class="st16" d="M71.3,7.5c-6-2.4-12.5-3.6-19-3.4c-10.7,0-21.2,3.2-30.2,9.1l3.2,0.5C14.5,21.8,7.5,33.9,6,47.2
	c1-1.2,2.3-2.1,3.7-2.8c0.7-0.3,1.4-0.4,2.2-0.5c0.3,0,0.6-0.1,0.8-0.4c10-12.9,25.5-20.1,41.8-19.3c0.1,0,0.1-0.1,0.2-0.1
	c5.3-4.4,12.9-4.4,18.3-0.2c0.1,0.1,0.2,0.1,0.2,0.1C90.6,21.5,79.1,10.9,71.3,7.5z"/>
<path class="st17" d="M46.4,7.2c-8.4,0-16.8,2.1-24.2,6l3.1,0.5C14.5,21.8,7.5,33.9,6,47.2c1-1.2,2.3-2.1,3.7-2.8
	c0.7-0.3,1.4-0.4,2.2-0.5c0.3,0,0.6-0.1,0.8-0.4c10-12.9,25.5-20.1,41.8-19.3c0.1,0,0.1-0.1,0.2-0.1c5.3-4.4,12.9-4.4,18.3-0.2
	c0.1,0.1,0.2,0.1,0.2,0.1c4.3-0.6,6.8-1.7,8.1-3.1C71.8,12.1,59.3,7.2,46.4,7.2z"/>
<path class="st18" d="M55.1,16.7C34.3,16.7,15.3,28.5,6,47.1c0,0,0,0.1,0,0.1c1-1.2,2.3-2.1,3.7-2.8c0.7-0.3,1.4-0.4,2.2-0.5
	c0.3,0,0.6-0.1,0.8-0.4c10-12.9,25.5-20.1,41.8-19.3c0.1,0,0.1-0.1,0.2-0.1c5.3-4.4,12.9-4.4,18.3-0.2c0.1,0.1,0.2,0.1,0.2,0.1
	c2.1-0.2,4.2-0.8,6.1-1.6C71.8,18.6,63.5,16.7,55.1,16.7z"/>
<text transform="matrix(1 0 0 1 114.7821 86)" class="st19 st20 st21">B</text>
<text transform="matrix(1 0 0 1 197.9803 86)" class="st19 st20 st21 st22">o</text>
<text transform="matrix(1 0 0 1 264.6795 86)" class="st19 st20 st21">t</text>
<text transform="matrix(1 0 0 1 306.9894 86)" class="st23 st20 st21">Fi</text>
</svg>
